<?xml version="1.0" standalone="no"?>
<!DOCTYPE svg PUBLIC "-//W3C//DTD SVG 20010904//EN"
 "http://www.w3.org/TR/2001/REC-SVG-20010904/DTD/svg10.dtd">
<svg version="1.0" xmlns="http://www.w3.org/2000/svg"
 width="292.000000pt" height="292.000000pt" viewBox="0 0 292.000000 292.000000"
 preserveAspectRatio="xMidYMid meet">
<metadata>
Created by potrace 1.14, written by Peter Selinger 2001-2017
</metadata>
<g transform="translate(0.000000,292.000000) scale(0.100000,-0.100000)"
fill="#000000" stroke="none">
<path d="M1390 2845 c-29 -19 -54 -35 -57 -35 -2 0 -45 -27 -95 -60 -49 -33
-93 -60 -97 -60 -4 0 -16 -9 -28 -19 -11 -10 -33 -26 -49 -34 -16 -8 -38 -24
-48 -36 -10 -11 -22 -18 -27 -16 -4 3 -10 1 -14 -4 -5 -9 27 -33 50 -37 6 -1
28 -10 50 -19 53 -24 73 -27 88 -14 21 18 147 98 147 93 0 -3 10 4 22 15 11
11 25 18 29 15 5 -3 8 -37 8 -77 -1 -40 -1 -89 0 -110 l1 -38 78 3 77 3 0 108
c1 61 5 107 10 107 16 -1 65 -24 65 -31 0 -4 14 -12 30 -19 17 -7 30 -16 30
-21 0 -5 6 -9 13 -9 7 0 24 -10 37 -22 41 -37 44 -36 169 20 48 21 52 25 35
35 -10 6 -23 14 -29 19 -9 8 -81 55 -260 169 -33 21 -65 42 -70 47 -14 12
-101 62 -107 62 -3 0 -29 -16 -58 -35z"/>
<path d="M830 2309 c-174 -6 -209 -14 -300 -65 -52 -30 -158 -139 -166 -171
-4 -13 -9 -23 -13 -23 -7 0 -33 -74 -49 -140 -16 -63 -6 -180 21 -257 57 -161
119 -217 403 -360 123 -61 220 -117 227 -128 16 -29 16 -105 0 -137 -8 -17
-22 -28 -36 -29 -116 -6 -144 -3 -169 14 -25 16 -28 24 -27 73 1 30 -1 58 -5
61 -7 7 -372 11 -393 5 -10 -3 -13 -67 -13 -276 0 -252 1 -273 18 -274 9 -1
82 -2 162 -2 80 0 151 0 158 0 30 -1 142 -1 188 0 29 0 56 0 60 -1 5 -1 11 -1
14 0 3 1 23 4 45 6 97 10 162 38 247 102 87 66 145 153 173 260 18 67 22 196
7 234 -6 15 -8 29 -6 32 8 7 -62 149 -87 178 -12 13 -26 31 -33 39 -40 54
-119 100 -419 245 -108 52 -115 61 -114 138 1 66 19 77 123 77 98 0 107 -8
109 -87 1 -30 7 -58 12 -61 9 -5 359 -8 395 -3 4 1 7 125 8 276 l0 275 -122 1
c-68 0 -152 1 -188 2 -36 1 -139 -1 -230 -4z"/>
<path d="M1519 2283 c-3 -78 -4 -771 -1 -788 3 -20 10 -21 135 -20 141 0 198
13 230 49 39 43 44 69 46 205 0 74 3 142 6 152 7 20 41 30 116 31 69 2 96 -8
105 -35 11 -32 12 -216 1 -257 -5 -19 -16 -43 -25 -52 -8 -10 -11 -18 -7 -18
5 0 -7 -14 -26 -31 -19 -17 -104 -65 -189 -106 -225 -109 -303 -168 -411 -313
-31 -42 -102 -190 -95 -197 3 -3 1 -13 -4 -23 -19 -36 -35 -175 -31 -268 l1
-23 183 6 c100 4 211 6 247 6 92 -2 122 -1 129 3 3 2 6 131 5 286 0 322 -10
292 96 303 30 3 84 13 120 22 36 9 70 18 75 19 23 4 122 60 169 96 93 70 169
190 192 300 21 101 23 153 9 235 -7 42 -45 156 -54 165 -4 3 -12 17 -20 32
-21 41 -104 123 -163 162 -29 20 -84 46 -121 60 -66 24 -74 24 -392 26 l-325
1 -1 -28z"/>
<path d="M1369 452 c0 -21 -2 -70 -2 -109 -1 -41 -6 -73 -12 -73 -9 0 -57 29
-176 107 l-37 24 -63 -26 c-102 -42 -109 -46 -96 -60 7 -6 35 -24 62 -40 28
-16 55 -33 60 -38 6 -4 25 -18 44 -30 19 -12 46 -30 60 -39 14 -10 33 -21 41
-25 8 -3 17 -9 20 -12 12 -14 167 -111 178 -111 10 0 194 115 244 152 10 7 67
44 128 83 l111 69 -43 21 c-24 11 -63 28 -87 38 -43 16 -45 16 -80 -5 -20 -12
-49 -32 -66 -43 -16 -12 -37 -25 -45 -29 -8 -3 -28 -15 -45 -25 -16 -11 -32
-20 -35 -20 -3 -1 -5 50 -5 112 l0 112 -77 2 -78 1 -1 -36z"/>
</g>
</svg>
